<svg xmlns="http://www.w3.org/2000/svg" width="1014.2164306640625" height="560.3922119140625" viewBox="-719.5159912109375 -283.7776184082031 1014.2164306640625 560.3922119140625"><title>Neo4j Graph Visualization</title><desc>Created using Neo4j (http://www.neo4j.com/)</desc><g class="layer relationships"><g class="relationship" transform="translate(-101.02534784088796 102.17055894439831) rotate(525.060477791183)"><path class="b-outline" fill="#A5ABB6" stroke="none" d="M 25 0.5 L 68.89459653556686 0.5 L 68.89459653556686 -0.5 L 25 -0.5 Z M 122.03131528556686 0.5 L 165.92591182113372 0.5 L 165.92591182113372 3.5 L 172.92591182113372 0 L 165.92591182113372 -3.5 L 165.92591182113372 -0.5 L 122.03131528556686 -0.5 Z"/><text text-anchor="middle" pointer-events="none" font-size="8px" fill="#000000" x="95.46295591056686" y="3" transform="rotate(180 95.46295591056686 0)" font-family="Helvetica Neue, Helvetica, Arial, sans-serif">hasMitigation</text></g><g class="relationship" transform="translate(-101.02534784088796 102.17055894439831) rotate(380.49016963049337)"><path class="b-outline" fill="#A5ABB6" stroke="none" d="M 6.953439040707552 24.018736134675446 L 17.306200844808384 62.65576918623819 A 17.916697508022974 17.916697508022974 0 1 1 -17.306200844808384 62.65576918623819 L -8.765172356425198 30.780216918698923 L -4.901469051268926 31.815493099109005 L -6.4704761275630185 24.148145657226706 L -11.662949835292403 30.00375978339136 L -7.79924653013613 31.039035963801442 L -16.340275018519314 62.91458823134071 A 16.916697508022974 16.916697508022974 0 1 0 16.340275018519314 62.91458823134071 L 5.987513214418485 24.277555179777966 Z"/><text text-anchor="middle" pointer-events="none" font-size="8px" fill="#000000" x="0" y="94.20964923467838" font-family="Helvetica Neue, Helvetica, Arial, sans-serif">Related_…</text></g><g class="relationship" transform="translate(-101.02534784088796 102.17055894439831) rotate(407.77532371083817)"><path class="b-outline" fill="#A5ABB6" stroke="none" d="M 6.953439040707552 24.018736134675446 L 17.306200844808384 62.65576918623819 A 17.916697508022974 17.916697508022974 0 1 1 -17.306200844808384 62.65576918623819 L -8.765172356425198 30.780216918698923 L -4.901469051268926 31.815493099109005 L -6.4704761275630185 24.148145657226706 L -11.662949835292403 30.00375978339136 L -7.79924653013613 31.039035963801442 L -16.340275018519314 62.91458823134071 A 16.916697508022974 16.916697508022974 0 1 0 16.340275018519314 62.91458823134071 L 5.987513214418485 24.277555179777966 Z"/><text text-anchor="middle" pointer-events="none" font-size="8px" fill="#000000" x="0" y="94.20964923467838" font-family="Helvetica Neue, Helvetica, Arial, sans-serif">hasMember</text></g><g class="relationship" transform="translate(-101.02534784088796 102.17055894439831) rotate(443.20501555014863)"><path class="b-outline" fill="#A5ABB6" stroke="none" d="M 25 0.5 L 31.162190557070872 0.5 L 31.162190557070872 -0.5 L 25 -0.5 Z M 108.31062805707087 0.5 L 114.47281861414174 0.5 L 114.47281861414174 3.5 L 121.47281861414174 0 L 114.47281861414174 -3.5 L 114.47281861414174 -0.5 L 108.31062805707087 -0.5 Z"/><text text-anchor="middle" pointer-events="none" font-size="8px" fill="#000000" x="69.73640930707087" y="3" font-family="Helvetica Neue, Helvetica, Arial, sans-serif">Applicable_Platform</text></g><g class="relationship" transform="translate(-101.02534784088796 102.17055894439831) rotate(192.75078788040128)"><path class="b-outline" fill="#A5ABB6" stroke="none" d="M 25 0.5 L 68.58098195127559 0.5 L 68.58098195127559 -0.5 L 25 -0.5 Z M 136.8505132012756 0.5 L 180.43149515255118 0.5 L 180.43149515255118 3.5 L 187.43149515255118 0 L 180.43149515255118 -3.5 L 180.43149515255118 -0.5 L 136.8505132012756 -0.5 Z"/><text text-anchor="middle" pointer-events="none" font-size="8px" fill="#000000" x="102.71574757627559" y="3" transform="rotate(180 102.71574757627559 0)" font-family="Helvetica Neue, Helvetica, Arial, sans-serif">hasConsequence</text></g><g class="relationship" transform="translate(-690.5159892581631 39.46982219370501) rotate(384.7608475634121)"><path class="b-outline" fill="#A5ABB6" stroke="none" d="M 25 0.5 L 78.45763487663706 0.5 L 78.45763487663706 -0.5 L 25 -0.5 Z M 126.69591612663706 0.5 L 180.15355100327412 0.5 L 180.15355100327412 3.5 L 187.15355100327412 0 L 180.15355100327412 -3.5 L 180.15355100327412 -0.5 L 126.69591612663706 -0.5 Z"/><text text-anchor="middle" pointer-events="none" font-size="8px" fill="#000000" x="102.57677550163706" y="3" font-family="Helvetica Neue, Helvetica, Arial, sans-serif">hasMember</text></g><g class="relationship" transform="translate(-497.8670095015003 128.32644716908743) rotate(342.8514600611699)"><path class="b-outline" fill="#A5ABB6" stroke="none" d="M 6.953439040707552 24.018736134675446 L 17.306200844808384 62.65576918623819 A 17.916697508022974 17.916697508022974 0 1 1 -17.306200844808384 62.65576918623819 L -8.765172356425198 30.780216918698923 L -4.901469051268926 31.815493099109005 L -6.4704761275630185 24.148145657226706 L -11.662949835292403 30.00375978339136 L -7.79924653013613 31.039035963801442 L -16.340275018519314 62.91458823134071 A 16.916697508022974 16.916697508022974 0 1 0 16.340275018519314 62.91458823134071 L 5.987513214418485 24.277555179777966 Z"/><text text-anchor="middle" pointer-events="none" font-size="8px" fill="#000000" x="0" y="94.20964923467838" font-family="Helvetica Neue, Helvetica, Arial, sans-serif">RelatedAtt…</text></g><g class="relationship" transform="translate(148.65870619883904 -199.52010109175748) rotate(226.69772054808504)"><path class="b-outline" fill="#A5ABB6" stroke="none" d="M 6.953439040707552 24.018736134675446 L 17.306200844808384 62.65576918623819 A 17.916697508022974 17.916697508022974 0 1 1 -17.306200844808384 62.65576918623819 L -8.765172356425198 30.780216918698923 L -4.901469051268926 31.815493099109005 L -6.4704761275630185 24.148145657226706 L -11.662949835292403 30.00375978339136 L -7.79924653013613 31.039035963801442 L -16.340275018519314 62.91458823134071 A 16.916697508022974 16.916697508022974 0 1 0 16.340275018519314 62.91458823134071 L 5.987513214418485 24.277555179777966 Z"/><text text-anchor="middle" pointer-events="none" font-size="8px" fill="#000000" x="0" y="94.20964923467838" transform="rotate(180 0 91.20964923467838)" font-family="Helvetica Neue, Helvetica, Arial, sans-serif">parentOf</text></g><g class="relationship" transform="translate(83.0775907548043 184.23631304092385) rotate(367.29172636448334)"><path class="b-outline" fill="#A5ABB6" stroke="none" d="M 25 0.5 L 68.88205943260422 0.5 L 68.88205943260422 -0.5 L 25 -0.5 Z M 108.22971568260422 0.5 L 152.11177511520845 0.5 L 152.11177511520845 3.5 L 159.11177511520845 0 L 152.11177511520845 -3.5 L 152.11177511520845 -0.5 L 108.22971568260422 -0.5 Z"/><text text-anchor="middle" pointer-events="none" font-size="8px" fill="#000000" x="88.55588755760422" y="3" font-family="Helvetica Neue, Helvetica, Arial, sans-serif">usefulFor</text></g><g class="relationship" transform="translate(-497.8670095015003 128.32644716908743) rotate(257.9067029500462)"><path class="b-outline" fill="#A5ABB6" stroke="none" d="M 25 0.5 L 27.076558857392612 0.5 L 27.076558857392612 -0.5 L 25 -0.5 Z M 111.78359010739261 0.5 L 113.86014896478522 0.5 L 113.86014896478522 3.5 L 120.86014896478522 0 L 113.86014896478522 -3.5 L 113.86014896478522 -0.5 L 111.78359010739261 -0.5 Z"/><text text-anchor="middle" pointer-events="none" font-size="8px" fill="#000000" x="69.43007448239261" y="3" transform="rotate(180 69.43007448239261 0)" font-family="Helvetica Neue, Helvetica, Arial, sans-serif">hasExternal_Refere…</text></g><g class="relationship" transform="translate(-497.8670095015003 128.32644716908743) rotate(338.93618931529)"><path class="b-outline" fill="#A5ABB6" stroke="none" d="M 25 0.5 L 63.979462289239976 0.5 L 63.979462289239976 -0.5 L 25 -0.5 Z M 132.24899353923996 0.5 L 171.22845582847995 0.5 L 171.22845582847995 3.5 L 178.22845582847995 0 L 171.22845582847995 -3.5 L 171.22845582847995 -0.5 L 132.24899353923996 -0.5 Z"/><text text-anchor="middle" pointer-events="none" font-size="8px" fill="#000000" x="98.11422791423998" y="3" font-family="Helvetica Neue, Helvetica, Arial, sans-serif">hasConsequence</text></g><g class="relationship" transform="translate(-101.02534784088796 102.17055894439831) rotate(359.1461611426781)"><path class="b-outline" fill="#A5ABB6" stroke="none" d="M 25 0.5 L 107.51226878463982 0.5 L 107.51226878463982 -0.5 L 25 -0.5 Z M 197.11773753463982 0.5 L 279.63000631927963 0.5 L 279.63000631927963 3.5 L 286.63000631927963 0 L 279.63000631927963 -3.5 L 279.63000631927963 -0.5 L 197.11773753463982 -0.5 Z"/><text text-anchor="middle" pointer-events="none" font-size="8px" fill="#000000" x="152.31500315963982" y="3" font-family="Helvetica Neue, Helvetica, Arial, sans-serif">hasExternal_Reference</text></g><g class="relationship" transform="translate(15.410678563455047 -73.94350289785709) rotate(353.99523564286187)"><path class="b-outline" fill="#A5ABB6" stroke="none" d="M 25 0.5 L 44.04202307821295 0.5 L 44.04202307821295 -0.5 L 25 -0.5 Z M 97.62405432821295 0.5 L 116.6660774064259 0.5 L 116.6660774064259 3.5 L 123.6660774064259 0 L 116.6660774064259 -3.5 L 116.6660774064259 -0.5 L 97.62405432821295 -0.5 Z"/><text text-anchor="middle" pointer-events="none" font-size="8px" fill="#000000" x="70.83303870321295" y="3" font-family="Helvetica Neue, Helvetica, Arial, sans-serif">referencedBy</text></g><g class="relationship" transform="translate(-497.8670095015003 128.32644716908743) rotate(366.8967663100488)"><path class="b-outline" fill="#A5ABB6" stroke="none" d="M 25 0.5 L 73.48390545823409 0.5 L 73.48390545823409 -0.5 L 25 -0.5 Z M 126.62062420823409 0.5 L 175.10452966646818 0.5 L 175.10452966646818 3.5 L 182.10452966646818 0 L 175.10452966646818 -3.5 L 175.10452966646818 -0.5 L 126.62062420823409 -0.5 Z"/><text text-anchor="middle" pointer-events="none" font-size="8px" fill="#000000" x="100.05226483323409" y="3" font-family="Helvetica Neue, Helvetica, Arial, sans-serif">hasMitigation</text></g><g class="relationship" transform="translate(83.0775907548043 184.23631304092385) rotate(204.02540821363243)"><path class="b-outline" fill="#A5ABB6" stroke="none" d="M 25 0.5 L 73.16364559740089 0.5 L 73.16364559740089 -0.5 L 25 -0.5 Z M 121.40192684740089 0.5 L 169.56557244480177 0.5 L 169.56557244480177 3.5 L 176.56557244480177 0 L 169.56557244480177 -3.5 L 169.56557244480177 -0.5 L 121.40192684740089 -0.5 Z"/><text text-anchor="middle" pointer-events="none" font-size="8px" fill="#000000" x="97.28278622240089" y="3" transform="rotate(180 97.28278622240089 0)" font-family="Helvetica Neue, Helvetica, Arial, sans-serif">hasMember</text></g><g class="relationship" transform="translate(-101.02534784088796 102.17055894439831) rotate(248.59429079471875)"><path class="b-outline" fill="#A5ABB6" stroke="none" d="M 25 0.5 L 38.053539543329734 0.5 L 38.053539543329734 -0.5 L 25 -0.5 Z M 98.75666454332973 0.5 L 111.81020408665947 0.5 L 111.81020408665947 3.5 L 118.81020408665947 0 L 111.81020408665947 -3.5 L 111.81020408665947 -0.5 L 98.75666454332973 -0.5 Z"/><text text-anchor="middle" pointer-events="none" font-size="8px" fill="#000000" x="68.40510204332973" y="3" transform="rotate(180 68.40510204332973 0)" font-family="Helvetica Neue, Helvetica, Arial, sans-serif">canBeDetected</text></g><g class="relationship" transform="translate(83.0775907548043 184.23631304092385) rotate(325.7797777791255)"><path class="b-outline" fill="#A5ABB6" stroke="none" d="M 25 0.5 L 28.789549545091674 0.5 L 28.789549545091674 -0.5 L 25 -0.5 Z M 118.39501829509167 0.5 L 122.18456784018335 0.5 L 122.18456784018335 3.5 L 129.18456784018335 0 L 122.18456784018335 -3.5 L 122.18456784018335 -0.5 L 118.39501829509167 -0.5 Z"/><text text-anchor="middle" pointer-events="none" font-size="8px" fill="#000000" x="73.59228392009167" y="3" font-family="Helvetica Neue, Helvetica, Arial, sans-serif">hasExternal_Reference</text></g><g class="relationship" transform="translate(-101.02534784088796 102.17055894439831) rotate(347.6796460530304)"><path class="b-outline" fill="#A5ABB6" stroke="none" d="M 25 0.5 L 64.92360328531652 0.5 L 64.92360328531652 -0.5 L 25 -0.5 Z M 114.94704078531652 0.5 L 154.87064407063303 0.5 L 154.87064407063303 3.5 L 161.87064407063303 0 L 154.87064407063303 -3.5 L 154.87064407063303 -0.5 L 114.94704078531652 -0.5 Z"/><text text-anchor="middle" pointer-events="none" font-size="8px" fill="#000000" x="89.93532203531652" y="3" font-family="Helvetica Neue, Helvetica, Arial, sans-serif">hasExample</text></g><g class="relationship" transform="translate(15.410678563455047 -73.94350289785709) rotate(483.4702799876735)"><path class="b-outline" fill="#A5ABB6" stroke="none" d="M 25 0.5 L 73.26922976752168 0.5 L 73.26922976752168 -0.5 L 25 -0.5 Z M 130.85516726752167 0.5 L 179.12439703504336 0.5 L 179.12439703504336 3.5 L 186.12439703504336 0 L 179.12439703504336 -3.5 L 179.12439703504336 -0.5 L 130.85516726752167 -0.5 Z"/><text text-anchor="middle" pointer-events="none" font-size="8px" fill="#000000" x="102.06219851752168" y="3" transform="rotate(180 102.06219851752168 0)" font-family="Helvetica Neue, Helvetica, Arial, sans-serif">Problem_Type</text></g><g class="relationship" transform="translate(15.410678563455047 -73.94350289785709) rotate(279.0119204823843)"><path class="b-outline" fill="#A5ABB6" stroke="none" d="M 25 0.5 L 40.41883457616869 0.5 L 40.41883457616869 -0.5 L 25 -0.5 Z M 101.11024082616869 0.5 L 116.52907540233738 0.5 L 116.52907540233738 3.5 L 123.52907540233738 0 L 116.52907540233738 -3.5 L 116.52907540233738 -0.5 L 101.11024082616869 -0.5 Z"/><text text-anchor="middle" pointer-events="none" font-size="8px" fill="#000000" x="70.76453770116869" y="3" font-family="Helvetica Neue, Helvetica, Arial, sans-serif">CVSS2_Impact</text></g><g class="relationship" transform="translate(-497.8670095015003 128.32644716908743) rotate(408.806153812291)"><path class="b-outline" fill="#A5ABB6" stroke="none" d="M 6.953439040707552 24.018736134675446 L 17.306200844808384 62.65576918623819 A 17.916697508022974 17.916697508022974 0 1 1 -17.306200844808384 62.65576918623819 L -8.765172356425198 30.780216918698923 L -4.901469051268926 31.815493099109005 L -6.4704761275630185 24.148145657226706 L -11.662949835292403 30.00375978339136 L -7.79924653013613 31.039035963801442 L -16.340275018519314 62.91458823134071 A 16.916697508022974 16.916697508022974 0 1 0 16.340275018519314 62.91458823134071 L 5.987513214418485 24.277555179777966 Z"/><text text-anchor="middle" pointer-events="none" font-size="8px" fill="#000000" x="0" y="94.20964923467838" font-family="Helvetica Neue, Helvetica, Arial, sans-serif">hasMember</text></g><g class="relationship" transform="translate(15.410678563455047 -73.94350289785709) rotate(316.69772054808504)"><path class="b-outline" fill="#A5ABB6" stroke="none" d="M 25 0.5 L 63.6989008295254 0.5 L 63.6989008295254 -0.5 L 25 -0.5 Z M 112.3981195795254 0.5 L 151.0970204090508 0.5 L 151.0970204090508 3.5 L 158.0970204090508 0 L 151.0970204090508 -3.5 L 151.0970204090508 -0.5 L 112.3981195795254 -0.5 Z"/><text text-anchor="middle" pointer-events="none" font-size="8px" fill="#000000" x="88.0485102045254" y="3" font-family="Helvetica Neue, Helvetica, Arial, sans-serif">applicableIn</text></g><g class="relationship" transform="translate(15.410678563455047 -73.94350289785709) rotate(236.085752028019)"><path class="b-outline" fill="#A5ABB6" stroke="none" d="M 25 0.5 L 40.348994116938826 0.5 L 40.348994116938826 -0.5 L 25 -0.5 Z M 101.04040036693883 0.5 L 116.38939448387765 0.5 L 116.38939448387765 3.5 L 123.38939448387765 0 L 116.38939448387765 -3.5 L 116.38939448387765 -0.5 L 101.04040036693883 -0.5 Z"/><text text-anchor="middle" pointer-events="none" font-size="8px" fill="#000000" x="70.69469724193883" y="3" transform="rotate(180 70.69469724193883 0)" font-family="Helvetica Neue, Helvetica, Arial, sans-serif">CVSS3_Impact</text></g><g class="relationship" transform="translate(-101.02534784088796 102.17055894439831) rotate(536.2290814942357)"><path class="b-outline" fill="#A5ABB6" stroke="none" d="M 25 0.5 L 154.55252019729477 0.5 L 154.55252019729477 -0.5 L 25 -0.5 Z M 236.15017644729477 0.5 L 365.70269664458954 0.5 L 365.70269664458954 3.5 L 372.70269664458954 0 L 365.70269664458954 -3.5 L 365.70269664458954 -0.5 L 236.15017644729477 -0.5 Z"/><text text-anchor="middle" pointer-events="none" font-size="8px" fill="#000000" x="195.35134832229477" y="3" transform="rotate(180 195.35134832229477 0)" font-family="Helvetica Neue, Helvetica, Arial, sans-serif">RelatedAttackPattern</text></g><g class="relationship" transform="translate(-690.5159892581631 39.46982219370501) rotate(341.6489719161725)"><path class="b-outline" fill="#A5ABB6" stroke="none" d="M 25 0.5 L 37.084952429272576 0.5 L 37.084952429272576 -0.5 L 25 -0.5 Z M 126.69042117927258 0.5 L 138.77537360854515 0.5 L 138.77537360854515 3.5 L 145.77537360854515 0 L 138.77537360854515 -3.5 L 138.77537360854515 -0.5 L 126.69042117927258 -0.5 Z"/><text text-anchor="middle" pointer-events="none" font-size="8px" fill="#000000" x="81.88768680427258" y="3" font-family="Helvetica Neue, Helvetica, Arial, sans-serif">hasExternal_Reference</text></g></g><g class="layer nodes"><g class="node" aria-label="graph-node-15" transform="translate(-83.69511665635144,247.6145333120626)"><circle class="b-outline" cx="0" cy="0" r="25" fill="#D9C8AE" stroke="#c0a378" stroke-width="2px"/><text class="caption" text-anchor="middle" pointer-events="none" x="0" y="5" font-size="10px" fill="#2A2C34" font-family="Helvetica Neue, Helvetica, Arial, sans-serif"> Applicab…</text></g><g class="node" aria-label="graph-node-12" transform="translate(-497.8670095015003,128.32644716908743)"><circle class="b-outline" cx="0" cy="0" r="25" fill="#604A0E" stroke="#423204" stroke-width="2px"/><text class="caption" text-anchor="middle" pointer-events="none" x="0" y="5" font-size="10px" fill="#FFFFFF" font-family="Helvetica Neue, Helvetica, Arial, sans-serif"> CAPEC</text></g><g class="node" aria-label="graph-node-17" transform="translate(-690.5159892581631,39.46982219370501)"><circle class="b-outline" cx="0" cy="0" r="25" fill="#F16667" stroke="#eb2728" stroke-width="2px"/><text class="caption" text-anchor="middle" pointer-events="none" x="0" y="5" font-size="10px" fill="#FFFFFF" font-family="Helvetica Neue, Helvetica, Arial, sans-serif"> CAPEC…</text></g><g class="node" aria-label="graph-node-2" transform="translate(148.65870619883904,-199.52010109175748)"><circle class="b-outline" cx="0" cy="0" r="25" fill="#4C8EDA" stroke="#2870c2" stroke-width="2px"/><text class="caption" text-anchor="middle" pointer-events="none" x="0" y="5" font-size="10px" fill="#FFFFFF" font-family="Helvetica Neue, Helvetica, Arial, sans-serif"> CPE</text></g><g class="node" aria-label="graph-node-3" transform="translate(15.410678563455047,-73.94350289785709)"><circle class="b-outline" cx="0" cy="0" r="25" fill="#8DCC93" stroke="#5db665" stroke-width="2px"/><text class="caption" text-anchor="middle" pointer-events="none" x="0" y="5" font-size="10px" fill="#2A2C34" font-family="Helvetica Neue, Helvetica, Arial, sans-serif"> CVE</text></g><g class="node" aria-label="graph-node-7" transform="translate(38.676265783969306,-220.63910164287012)"><circle class="b-outline" cx="0" cy="0" r="25" fill="#57C7E3" stroke="#23b3d7" stroke-width="2px"/><text class="caption" text-anchor="middle" pointer-events="none" x="0" y="5" font-size="10px" fill="#2A2C34" font-family="Helvetica Neue, Helvetica, Arial, sans-serif"> CVSS_2</text></g><g class="node" aria-label="graph-node-6" transform="translate(-67.3834058161657,-197.0879383670739)"><circle class="b-outline" cx="0" cy="0" r="25" fill="#FFC454" stroke="#d7a013" stroke-width="2px"/><text class="caption" text-anchor="middle" pointer-events="none" x="0" y="5" font-size="10px" fill="#2A2C34" font-family="Helvetica Neue, Helvetica, Arial, sans-serif"> CVSS_3</text></g><g class="node" aria-label="graph-node-4" transform="translate(-101.02534784088796,102.17055894439831)"><circle class="b-outline" cx="0" cy="0" r="25" fill="#DA7194" stroke="#cc3c6c" stroke-width="2px"/><text class="caption" text-anchor="middle" pointer-events="none" x="0" y="5" font-size="10px" fill="#FFFFFF" font-family="Helvetica Neue, Helvetica, Arial, sans-serif"> CWE</text></g><g class="node" aria-label="graph-node-13" transform="translate(83.0775907548043,184.23631304092385)"><circle class="b-outline" cx="0" cy="0" r="25" fill="#604A0E" stroke="#423204" stroke-width="2px"/><text class="caption" text-anchor="middle" pointer-events="none" x="0" y="5" font-size="10px" fill="#FFFFFF" font-family="Helvetica Neue, Helvetica, Arial, sans-serif"> CWE_VI…</text></g><g class="node" aria-label="graph-node-9" transform="translate(-308.2181305581419,55.284623711866644)"><circle class="b-outline" cx="0" cy="0" r="25" fill="#ECB5C9" stroke="#da7298" stroke-width="2px"/><text class="caption" text-anchor="middle" pointer-events="none" x="0" y="5" font-size="10px" fill="#2A2C34" font-family="Helvetica Neue, Helvetica, Arial, sans-serif"> Conseq…</text></g><g class="node" aria-label="graph-node-18" transform="translate(81.54163449110636,62.29657522615817)"><circle class="b-outline" cx="0" cy="0" r="25" fill="#A5ABB6" stroke="#9AA1AC" stroke-width="2px"/><text class="caption" text-anchor="middle" pointer-events="none" x="0" y="5" font-size="10px" fill="#FFFFFF" font-family="Helvetica Neue, Helvetica, Arial, sans-serif"> Demons…</text></g><g class="node" aria-label="graph-node-11" transform="translate(-153.51169432594588,-31.71953864350061)"><circle class="b-outline" cx="0" cy="0" r="25" fill="#F79767" stroke="#f36924" stroke-width="2px"/><text class="caption" text-anchor="middle" pointer-events="none" x="0" y="5" font-size="10px" fill="#FFFFFF" font-family="Helvetica Neue, Helvetica, Arial, sans-serif"> Detectio…</text></g><g class="node" aria-label="graph-node-16" transform="translate(-528.4253192423355,-14.29673734806082)"><circle class="b-outline" cx="0" cy="0" r="25" fill="#F79767" stroke="#f36924" stroke-width="2px"/><text class="caption" text-anchor="middle" pointer-events="none" x="0" y="5" font-size="10px" fill="#FFFFFF" font-family="Helvetica Neue, Helvetica, Arial, sans-serif"> External…</text></g><g class="node" aria-label="graph-node-8" transform="translate(210.57005595259287,97.52672719336734)"><circle class="b-outline" cx="0" cy="0" r="25" fill="#57C7E3" stroke="#23b3d7" stroke-width="2px"/><text class="caption" text-anchor="middle" pointer-events="none" x="0" y="5" font-size="10px" fill="#2A2C34" font-family="Helvetica Neue, Helvetica, Arial, sans-serif"> External…</text></g><g class="node" aria-label="graph-node-10" transform="translate(-292.26106321507194,153.1957266124354)"><circle class="b-outline" cx="0" cy="0" r="25" fill="#569480" stroke="#447666" stroke-width="2px"/><text class="caption" text-anchor="middle" pointer-events="none" x="0" y="5" font-size="10px" fill="#FFFFFF" font-family="Helvetica Neue, Helvetica, Arial, sans-serif"> Mitigation</text></g><g class="node" aria-label="graph-node-5" transform="translate(163.26105493629464,-89.49563387155617)"><circle class="b-outline" cx="0" cy="0" r="25" fill="#FFC454" stroke="#d7a013" stroke-width="2px"/><text class="caption" text-anchor="middle" pointer-events="none" x="0" y="5" font-size="10px" fill="#2A2C34" font-family="Helvetica Neue, Helvetica, Arial, sans-serif"> Referen…</text></g><g class="node" aria-label="graph-node-14" transform="translate(265.7004135606723,207.60403279467016)"><circle class="b-outline" cx="0" cy="0" r="25" fill="#F79767" stroke="#f36924" stroke-width="2px"/><text class="caption" text-anchor="middle" pointer-events="none" x="0" y="5" font-size="10px" fill="#FFFFFF" font-family="Helvetica Neue, Helvetica, Arial, sans-serif"> Stakehol…</text></g></g></svg>